<svg width="1200" height="630" viewBox="0 0 1200 630" fill="none" xmlns="http://www.w3.org/2000/svg">
  <defs>
    <linearGradient id="bg" x1="0" y1="0" x2="1200" y2="630" gradientUnits="userSpaceOnUse">
      <stop stop-color="#66C24A"/>
      <stop offset="0.5" stop-color="#43B02A"/>
      <stop offset="1" stop-color="#2C731B"/>
    </linearGradient>
    <radialGradient id="sheen" cx="0.78" cy="0.08" r="0.7">
      <stop stop-color="#FFFFFF" stop-opacity="0.18"/>
      <stop offset="0.6" stop-color="#FFFFFF" stop-opacity="0"/>
    </radialGradient>
    <linearGradient id="markSheen" x1="0" y1="0" x2="0" y2="200" gradientUnits="userSpaceOnUse">
      <stop stop-color="#FFFFFF" stop-opacity="0.14"/>
      <stop offset="0.5" stop-color="#FFFFFF" stop-opacity="0"/>
    </linearGradient>
  </defs>

  <rect width="1200" height="630" fill="url(#bg)"/>
  <rect width="1200" height="630" fill="url(#sheen)"/>

  <!-- locator rings -->
  <circle cx="245" cy="315" r="150" fill="none" stroke="#FFFFFF" stroke-opacity="0.12" stroke-width="2"/>
  <circle cx="245" cy="315" r="230" fill="none" stroke="#FFFFFF" stroke-opacity="0.08" stroke-width="2"/>

  <!-- app mark -->
  <g transform="translate(165,235)">
    <rect width="160" height="160" rx="38" fill="#FFFFFF"/>
    <rect width="160" height="160" rx="38" fill="url(#markSheen)"/>
    <path d="M80 30c-23 0-42 18-42 41 0 29 34 58 40 63a3 3 0 0 0 4 0c6-5 40-34 40-63 0-23-19-41-42-41Z" fill="#43B02A"/>
    <rect x="58" y="58" width="44" height="36" rx="9" fill="#FFFFFF"/>
    <circle cx="68" cy="82" r="5" fill="#43B02A"/>
    <circle cx="92" cy="82" r="5" fill="#43B02A"/>
    <rect x="66" y="63" width="28" height="9" rx="3" fill="#43B02A"/>
  </g>

  <!-- wordmark + tagline -->
  <text x="430" y="300" font-family="'DejaVu Sans', 'Segoe UI', Arial, sans-serif" font-weight="700" font-size="120" fill="#FFFFFF" letter-spacing="-2">Šoto<tspan fill="#D9F0CF">GO</tspan></text>
  <text x="434" y="372" font-family="'DejaVu Sans Mono', 'Courier New', monospace" font-size="30" fill="#EAF7E3" letter-spacing="3">Chyť je všechny · sbírej MHD</text>
  <text x="434" y="430" font-family="'DejaVu Sans', 'Segoe UI', Arial, sans-serif" font-size="28" fill="#FFFFFF" fill-opacity="0.9">Sběratelská hra pražské MHD — tramvaje, autobusy, metro</text>
</svg>
