<svg width="512" height="512" viewBox="0 0 512 512" fill="none" xmlns="http://www.w3.org/2000/svg" role="img" aria-label="ŠotoGO">
  <rect width="512" height="512" rx="116" fill="#43B02A"></rect>
  <rect width="512" height="512" rx="116" fill="url(#sg-sheen)"></rect>
  <path d="M256 104c-67 0-121 53-121 119 0 84 99 167 116 181a8 8 0 0 0 10 0c17-14 116-97 116-181 0-66-54-119-121-119Z" fill="#FFFFFF"></path>
  <circle cx="256" cy="223" r="62" fill="#43B02A"></circle>
  <circle cx="256" cy="223" r="62" fill="url(#sg-sheen2)"></circle>
  <rect x="222" y="196" width="68" height="54" rx="14" fill="#FFFFFF"></rect>
  <circle cx="237" cy="232" r="8" fill="#43B02A"></circle>
  <circle cx="275" cy="232" r="8" fill="#43B02A"></circle>
  <rect x="234" y="204" width="44" height="14" rx="5" fill="#43B02A"></rect>
  <defs>
    <linearGradient id="sg-sheen" x1="0" y1="0" x2="0" y2="512" gradientUnits="userSpaceOnUse">
      <stop stop-color="#FFFFFF" stop-opacity="0.12"></stop>
      <stop offset="0.5" stop-color="#FFFFFF" stop-opacity="0"></stop>
    </linearGradient>
    <linearGradient id="sg-sheen2" x1="256" y1="161" x2="256" y2="285" gradientUnits="userSpaceOnUse">
      <stop stop-color="#2C731B" stop-opacity="0"></stop>
      <stop offset="1" stop-color="#173E0E" stop-opacity="0.25"></stop>
    </linearGradient>
  </defs>
</svg>
